<svg width="24" height="24" viewBox="0 0 24 24" fill="none" xmlns="http://www.w3.org/2000/svg">

<path d="M12 3C8.1 3 5 6.1 5 10V12" stroke="black" stroke-width="2" stroke-linecap="round"></path>

<path d="M12 3C15.9 3 19 6.1 19 10V12" stroke="black" stroke-width="2" stroke-linecap="round"></path>

<path d="M8 10V12C8 14.8 9.2 17.3 11 19" stroke="black" stroke-width="2" stroke-linecap="round"></path>

<path d="M16 10V12C16 14.8 14.8 17.3 13 19" stroke="black" stroke-width="2" stroke-linecap="round"></path>

<path d="M12 8C10.3 8 9 9.3 9 11V13C9 14.7 9.7 16.3 11 17.5" stroke="black" stroke-width="2" stroke-linecap="round"></path>

<path d="M12 8C13.7 8 15 9.3 15 11V13C15 14.7 14.3 16.3 13 17.5" stroke="black" stroke-width="2" stroke-linecap="round"></path>

</svg>